<svg width="52" height="52" viewBox="0 0 52 52" fill="none" xmlns="http://www.w3.org/2000/svg">
<circle cx="26" cy="26" r="26" fill="#1A2B56"/>
<path d="M19.9175 36.5117C20.5096 37.0834 21.4642 37.0834 22.0563 36.5117L32.0975 26.8167C32.2095 26.7088 32.2984 26.5806 32.359 26.4395C32.4197 26.2983 32.4509 26.147 32.4509 25.9942C32.4509 25.8414 32.4197 25.6901 32.359 25.549C32.2984 25.4079 32.2095 25.2797 32.0975 25.1717L22.0563 15.4767C21.4642 14.9051 20.5096 14.9051 19.9175 15.4767C19.3254 16.0484 19.3254 16.9701 19.9175 17.5417L28.6658 26.0001L19.9054 34.4584C19.3254 35.0184 19.3254 35.9517 19.9175 36.5117Z" fill="white"/>
</svg>
