<svg width="20" height="20" viewBox="0 0 20 20" fill="none" xmlns="http://www.w3.org/2000/svg">
<path d="M14.1667 10.9416V14.0224H12.3809V11.1474C12.3809 10.4257 12.1225 9.93325 11.4759 9.93325C10.9825 9.93325 10.6884 10.2649 10.5592 10.5866C10.5125 10.7016 10.5 10.8616 10.5 11.0216V14.0224H8.71337C8.71337 14.0224 8.73754 9.15408 8.71337 8.64992H10.5V9.41075L10.4884 9.42825H10.5V9.41075C10.7375 9.04408 11.1609 8.52325 12.11 8.52325C13.285 8.52325 14.1667 9.29158 14.1667 10.9416ZM6.84421 6.05908C6.23337 6.05908 5.83337 6.46075 5.83337 6.98742C5.83337 7.50408 6.22171 7.91658 6.82087 7.91658H6.83254C7.45587 7.91658 7.84337 7.50325 7.84337 6.98742C7.83171 6.46075 7.45587 6.05908 6.84421 6.05908ZM5.93921 14.0224H7.72587V8.64992H5.93921V14.0224Z" fill="white"/>
<path d="M5.00002 3.33317C4.55799 3.33317 4.13407 3.50877 3.82151 3.82133C3.50895 4.13389 3.33335 4.55781 3.33335 4.99984V14.9998C3.33335 15.4419 3.50895 15.8658 3.82151 16.1783C4.13407 16.4909 4.55799 16.6665 5.00002 16.6665H15C15.442 16.6665 15.866 16.4909 16.1785 16.1783C16.4911 15.8658 16.6667 15.4419 16.6667 14.9998V4.99984C16.6667 4.55781 16.4911 4.13389 16.1785 3.82133C15.866 3.50877 15.442 3.33317 15 3.33317H5.00002ZM5.00002 1.6665H15C15.8841 1.6665 16.7319 2.01769 17.357 2.64281C17.9822 3.26794 18.3334 4.11578 18.3334 4.99984V14.9998C18.3334 15.8839 17.9822 16.7317 17.357 17.3569C16.7319 17.982 15.8841 18.3332 15 18.3332H5.00002C4.11597 18.3332 3.26812 17.982 2.643 17.3569C2.01788 16.7317 1.66669 15.8839 1.66669 14.9998V4.99984C1.66669 4.11578 2.01788 3.26794 2.643 2.64281C3.26812 2.01769 4.11597 1.6665 5.00002 1.6665Z" fill="white"/>
</svg>
