<svg width="11" height="19" viewBox="0 0 11 19" fill="none" xmlns="http://www.w3.org/2000/svg">
<path d="M10.62 18.5655C10.13 19.0555 9.34 19.0555 8.85 18.5655L0.539999 10.2555C0.447295 10.163 0.373748 10.0531 0.323566 9.93209C0.273385 9.81112 0.247555 9.68144 0.247555 9.55047C0.247555 9.4195 0.273385 9.28982 0.323566 9.16884C0.373748 9.04787 0.447295 8.93798 0.539999 8.84547L8.85 0.535469C9.34 0.0454687 10.13 0.0454687 10.62 0.535469C11.11 1.02547 11.11 1.81547 10.62 2.30547L3.38 9.55547L10.63 16.8055C11.11 17.2855 11.11 18.0855 10.62 18.5655Z" fill="#1A2B56"/>
</svg>
