<svg width="22" height="29" viewBox="0 0 22 29" fill="none" xmlns="http://www.w3.org/2000/svg">
<path d="M6.22725 0.615556L4.9725 0.993556C3.85526 1.33048 2.85752 1.97955 2.09671 2.86437C1.3359 3.74919 0.843687 4.83294 0.678001 5.98806C0.158251 9.60706 1.32025 13.8386 4.122 18.6913C6.91675 23.5318 9.99325 26.6503 13.3795 28.0153C14.4675 28.4538 15.6586 28.5707 16.8111 28.3519C17.9636 28.1332 19.029 27.5882 19.8808 26.7816L20.8293 25.8821C21.4452 25.2991 21.8285 24.5124 21.908 23.6682C21.9875 22.8239 21.7578 21.9794 21.2615 21.2918L18.8885 18.0018C18.5677 17.5576 18.1159 17.225 17.5965 17.0505C17.0771 16.876 16.5162 16.8684 15.9923 17.0288L12.403 18.1261L12.3103 18.1436C11.9148 18.2013 11.0013 17.3456 9.86375 15.3751C8.67375 13.3136 8.42875 12.1078 8.756 11.7963L10.5813 10.0936C11.2487 9.47136 11.7047 8.65583 11.8851 7.76136C12.0656 6.86689 11.9615 5.93837 11.5875 5.10606L10.429 2.53181C10.0806 1.75716 9.46247 1.13562 8.68972 0.783052C7.91698 0.430487 7.04064 0.370956 6.22725 0.615556ZM8.83475 3.24931L9.98975 5.82355C10.2147 6.32271 10.2776 6.8798 10.1696 7.41654C10.0616 7.95328 9.78821 8.44271 9.38775 8.81605L7.55725 10.5206C6.3865 11.6301 6.775 13.5236 8.35 16.2501C9.8305 18.8156 11.1815 20.0826 12.634 19.8621L12.851 19.8166L16.505 18.7018C16.6797 18.6482 16.8667 18.6505 17.04 18.7086C17.2132 18.7666 17.3639 18.8775 17.471 19.0256L19.844 22.3156C20.0925 22.6593 20.2076 23.0817 20.168 23.504C20.1285 23.9264 19.9368 24.3199 19.6288 24.6116L18.6785 25.5111C18.0701 26.0868 17.3092 26.4759 16.4862 26.6319C15.6632 26.788 14.8127 26.7044 14.0358 26.3913C11.0643 25.1943 8.2555 22.3471 5.63925 17.8163C3.016 13.2751 1.95375 9.41281 2.4105 6.23656C2.52874 5.41131 2.88029 4.63702 3.42379 4.00486C3.96728 3.3727 4.68007 2.90898 5.47825 2.66831L6.733 2.29031C7.1398 2.16807 7.57718 2.19796 7.96357 2.37441C8.34995 2.55086 8.65897 2.86182 8.833 3.24931H8.83475Z" fill="#1A2B56"/>
</svg>
